<svg width="79" height="79" viewBox="0 0 79 79" fill="none" xmlns="http://www.w3.org/2000/svg">
<circle cx="39.5" cy="39.5" r="38.5" fill="white" stroke="#2C49FE" stroke-width="2"/>
<path d="M51.875 30.2812C51.875 28.9137 51.3318 27.6022 50.3648 26.6352C49.3978 25.6682 48.0863 25.125 46.7188 25.125H32.2812C30.9137 25.125 29.6022 25.6682 28.6352 26.6352C27.6682 27.6022 27.125 28.9137 27.125 30.2812V44.7188C27.125 46.0863 27.6682 47.3978 28.6352 48.3648C29.6022 49.3318 30.9137 49.875 32.2812 49.875H35.9051C35.3798 49.2388 34.9254 48.5472 34.55 47.8125H32.2812C31.4607 47.8125 30.6738 47.4866 30.0936 46.9064C29.5134 46.3262 29.1875 45.5393 29.1875 44.7188V33.375H38.1326C39.9785 32.0756 42.2287 31.3125 44.6562 31.3125C47.3994 31.3125 49.9156 32.286 51.875 33.9051V30.2812ZM44.6562 31.3125H29.1875V30.2812C29.1875 29.4607 29.5134 28.6738 30.0936 28.0936C30.6738 27.5134 31.4607 27.1875 32.2812 27.1875H46.7188C47.5393 27.1875 48.3262 27.5134 48.9064 28.0936C49.4866 28.6738 49.8125 29.4607 49.8125 30.2812V31.3125H44.6562ZM43.3672 38.5312C43.3672 38.1894 43.503 37.8615 43.7447 37.6197C43.9865 37.378 44.3144 37.2422 44.6562 37.2422C44.9981 37.2422 45.326 37.378 45.5678 37.6197C45.8095 37.8615 45.9453 38.1894 45.9453 38.5312C45.9453 38.8731 45.8095 39.201 45.5678 39.4428C45.326 39.6845 44.9981 39.8203 44.6562 39.8203C44.3144 39.8203 43.9865 39.6845 43.7447 39.4428C43.503 39.201 43.3672 38.8731 43.3672 38.5312ZM45.6875 46.7812C45.6875 47.0548 45.5789 47.3171 45.3855 47.5105C45.1921 47.7039 44.9298 47.8125 44.6562 47.8125C44.3827 47.8125 44.1204 47.7039 43.927 47.5105C43.7336 47.3171 43.625 47.0548 43.625 46.7812V42.6562C43.625 42.3827 43.7336 42.1204 43.927 41.927C44.1204 41.7336 44.3827 41.625 44.6562 41.625C44.9298 41.625 45.1921 41.7336 45.3855 41.927C45.5789 42.1204 45.6875 42.3827 45.6875 42.6562V46.7812ZM35.375 42.6562C35.375 41.4374 35.6151 40.2305 36.0815 39.1045C36.5479 37.9784 37.2316 36.9553 38.0934 36.0934C38.9553 35.2316 39.9784 34.5479 41.1045 34.0815C42.2305 33.6151 43.4374 33.375 44.6562 33.375C45.8751 33.375 47.082 33.6151 48.208 34.0815C49.3341 34.5479 50.3572 35.2316 51.2191 36.0934C52.0809 36.9553 52.7646 37.9784 53.231 39.1045C53.6974 40.2305 53.9375 41.4374 53.9375 42.6562C53.9375 45.1178 52.9597 47.4785 51.2191 49.2191C49.4785 50.9597 47.1178 51.9375 44.6562 51.9375C42.1947 51.9375 39.834 50.9597 38.0934 49.2191C36.3528 47.4785 35.375 45.1178 35.375 42.6562ZM37.4375 42.6562C37.4375 44.5708 38.198 46.4069 39.5518 47.7607C40.9056 49.1145 42.7417 49.875 44.6562 49.875C46.5708 49.875 48.4069 49.1145 49.7607 47.7607C51.1145 46.4069 51.875 44.5708 51.875 42.6562C51.875 40.7417 51.1145 38.9056 49.7607 37.5518C48.4069 36.198 46.5708 35.4375 44.6562 35.4375C42.7417 35.4375 40.9056 36.198 39.5518 37.5518C38.198 38.9056 37.4375 40.7417 37.4375 42.6562Z" fill="#2C49FE"/>
</svg>
