<svg width="23" height="29" viewBox="0 0 23 29" fill="none" xmlns="http://www.w3.org/2000/svg">
<path d="M11.5 15.7917C13.6401 15.7917 15.375 14.0569 15.375 11.9167C15.375 9.77665 13.6401 8.04175 11.5 8.04175C9.3599 8.04175 7.625 9.77665 7.625 11.9167C7.625 14.0569 9.3599 15.7917 11.5 15.7917Z" stroke="white" stroke-width="2" stroke-linecap="round" stroke-linejoin="round"/>
<path d="M11.4993 1.58337C8.75878 1.58337 6.13045 2.67206 4.19258 4.60994C2.2547 6.54781 1.16602 9.17614 1.16602 11.9167C1.16602 14.3605 1.68527 15.9596 3.10352 17.7292L11.4993 27.4167L19.8952 17.7292C21.3134 15.9596 21.8327 14.3605 21.8327 11.9167C21.8327 9.17614 20.744 6.54781 18.8061 4.60994C16.8682 2.67206 14.2399 1.58337 11.4993 1.58337V1.58337Z" stroke="white" stroke-width="2" stroke-linecap="round" stroke-linejoin="round"/>
</svg>
