<svg width="34" height="34" viewBox="0 0 34 34" fill="none" xmlns="http://www.w3.org/2000/svg">
<path d="M0.199219 6.20001C0.199219 4.60871 0.83136 3.08259 1.95658 1.95737C3.0818 0.832153 4.60792 0.200012 6.19922 0.200012H18.1992C19.7905 0.200012 21.3166 0.832153 22.4419 1.95737C23.5671 3.08259 24.1992 4.60871 24.1992 6.20001C24.1992 6.51827 24.0728 6.8235 23.8477 7.04854C23.6227 7.27358 23.3175 7.40001 22.9992 7.40001C22.681 7.40001 22.3757 7.27358 22.1507 7.04854C21.9256 6.8235 21.7992 6.51827 21.7992 6.20001C21.7992 5.24523 21.4199 4.32956 20.7448 3.65443C20.0697 2.9793 19.154 2.60001 18.1992 2.60001H6.19922C5.24444 2.60001 4.32876 2.9793 3.65363 3.65443C2.9785 4.32956 2.59922 5.24523 2.59922 6.20001V18.2C2.59922 19.1548 2.9785 20.0705 3.65363 20.7456C4.32876 21.4207 5.24444 21.8 6.19922 21.8H17.0328C17.1812 20.4814 17.8099 19.2636 18.7989 18.379C19.788 17.4943 21.0681 17.0048 22.395 17.0039C23.722 17.0029 25.0028 17.4906 25.9931 18.3737C26.9834 19.2569 27.6139 20.4738 27.7642 21.7922C27.9145 23.1106 27.5741 24.4382 26.808 25.5216C26.0419 26.6051 24.9036 27.3685 23.6105 27.6662C22.3174 27.9639 20.96 27.7751 19.7972 27.1358C18.6344 26.4965 17.7478 25.4514 17.3064 24.2H6.19922C4.60792 24.2 3.0818 23.5679 1.95658 22.4427C0.83136 21.3174 0.199219 19.7913 0.199219 18.2V6.20001ZM10.9992 26.6C10.681 26.6 10.3757 26.7264 10.1507 26.9515C9.92565 27.1765 9.79922 27.4818 9.79922 27.8C9.79922 29.3913 10.4314 30.9174 11.5566 32.0427C12.6818 33.1679 14.2079 33.8 15.7992 33.8H27.7992C29.3905 33.8 30.9166 33.1679 32.0419 32.0427C33.1671 30.9174 33.7992 29.3913 33.7992 27.8V15.8C33.7992 14.2087 33.1671 12.6826 32.0419 11.5574C30.9166 10.4322 29.3905 9.80001 27.7992 9.80001H16.692C16.2507 8.54863 15.364 7.50357 14.2012 6.86425C13.0385 6.22493 11.681 6.03611 10.3879 6.33383C9.0948 6.63156 7.95658 7.39497 7.19046 8.47839C6.42433 9.56182 6.08394 10.8894 6.23424 12.2078C6.38454 13.5262 7.015 14.7431 8.00532 15.6263C8.99563 16.5095 10.2765 16.9971 11.6034 16.9962C12.9303 16.9952 14.2105 16.5057 15.1995 15.6211C16.1885 14.7364 16.8172 13.5186 16.9656 12.2H27.7992C28.754 12.2 29.6697 12.5793 30.3448 13.2544C31.0199 13.9296 31.3992 14.8452 31.3992 15.8V27.8C31.3992 28.7548 31.0199 29.6705 30.3448 30.3456C29.6697 31.0207 28.754 31.4 27.7992 31.4H15.7992C14.8444 31.4 13.9288 31.0207 13.2536 30.3456C12.5785 29.6705 12.1992 28.7548 12.1992 27.8C12.1992 27.4818 12.0728 27.1765 11.8477 26.9515C11.6227 26.7264 11.3175 26.6 10.9992 26.6Z" fill="#2C49FE"/>
</svg>
